<svg width="64" height="64" viewBox="0 0 64 64" fill="none" xmlns="http://www.w3.org/2000/svg">
<path d="M28.0416 1.06065C30.4911 -0.353551 33.509 -0.353552 35.9584 1.06065L56.8151 13.1022C59.2646 14.5164 60.7735 17.13 60.7735 19.9584V44.0416C60.7735 46.87 59.2646 49.4836 56.8151 50.8978L35.9584 62.9393C33.509 64.3536 30.4911 64.3536 28.0416 62.9393L7.18498 50.8978C4.7355 49.4836 3.22656 46.87 3.22656 44.0416V19.9584C3.22656 17.13 4.7355 14.5164 7.18498 13.1022L28.0416 1.06065Z" fill="url(#paint0_linear)"/>
<path fill-rule="evenodd" clip-rule="evenodd" d="M37.1526 29.8018C37.003 29.6951 36.9484 29.4983 37.0215 29.3298L44.6632 11.7229C44.8304 11.3375 44.3531 10.997 44.0431 11.2806L22.792 30.7275C22.6092 30.8947 22.627 31.1879 22.8287 31.3317L26.8474 34.1982C26.997 34.3049 27.0516 34.5017 26.9784 34.6702L19.3368 52.2771C19.1696 52.6625 19.6469 53.003 19.9568 52.7194L41.208 33.2725C41.3908 33.1053 41.3729 32.8121 41.1713 32.6683L37.1526 29.8018Z" fill="url(#paint1_linear)"/>
<defs>
<linearGradient id="paint0_linear" x1="16.1362" y1="54.2611" x2="47.7111" y2="7.17572" gradientUnits="userSpaceOnUse">
<stop stop-color="#2F323A"/>
<stop offset="1" stop-color="#49638A"/>
</linearGradient>
<linearGradient id="paint1_linear" x1="46.0353" y1="12.3232" x2="17.9646" y2="51.6768" gradientUnits="userSpaceOnUse">
<stop stop-color="#FFF503"/>
<stop offset="1" stop-color="#FF6B00"/>
</linearGradient>
</defs>
</svg>
